<?xml version="1.0" encoding="UTF-8" standalone="no"?>
<svg
   version="1.0"
   width="846.000000pt"
   height="1280.000000pt"
   viewBox="0 0 846.000000 1280.000000"
   preserveAspectRatio="xMidYMid meet"
   id="svg6"
   sodipodi:docname="egyptian.svg"
   inkscape:version="1.4 (86a8ad7, 2024-10-11)"
   xmlns:inkscape="http://www.inkscape.org/namespaces/inkscape"
   xmlns:sodipodi="http://sodipodi.sourceforge.net/DTD/sodipodi-0.dtd"
   xmlns="http://www.w3.org/2000/svg"
   xmlns:svg="http://www.w3.org/2000/svg">
  <defs
     id="defs6" />
  <sodipodi:namedview
     id="namedview6"
     pagecolor="#ffffff"
     bordercolor="#000000"
     borderopacity="0.25"
     inkscape:showpageshadow="2"
     inkscape:pageopacity="0.0"
     inkscape:pagecheckerboard="0"
     inkscape:deskcolor="#d1d1d1"
     inkscape:document-units="pt"
     inkscape:zoom="0.50859375"
     inkscape:cx="563.31797"
     inkscape:cy="853.33333"
     inkscape:window-width="1920"
     inkscape:window-height="1112"
     inkscape:window-x="-8"
     inkscape:window-y="-8"
     inkscape:window-maximized="1"
     inkscape:current-layer="svg6" />
  <metadata
     id="metadata1">
Created by potrace 1.15, written by Peter Selinger 2001-2017
</metadata>
  <g
     transform="matrix(0.17274291,0,0,-0.1,-10.377408,1280)"
     fill="#000000"
     stroke="none"
     id="g6">
    <path
       d="m 1070,12789 c -32,-13 -78,-56 -96,-91 -34,-65 -11,-120 95,-223 l 51,-49 v -333 -333 h 66 c 127,0 272,-51 316,-111 16,-21 47,-173 48,-235 0,-7 -42,-13 -122,-17 -138,-6 -234,-31 -347,-93 -87,-48 -124,-77 -167,-135 l -38,-49 -66,72 -67,72 -39,-31 c -107,-85 -128,-132 -62,-134 51,-2 83,-13 86,-32 4,-21 -65,-143 -221,-392 -322,-512 -377,-607 -377,-654 0,-20 19,-31 50,-31 29,0 43,-36 36,-88 -3,-25 -27,-115 -52,-201 -74,-249 -83,-289 -94,-426 -16,-181 -9,-947 7,-967 7,-8 30,-20 51,-26 26,-8 43,-21 52,-39 21,-45 23,-182 6,-433 -36,-519 -56,-1458 -60,-2801 -2,-482 -6,-881 -10,-887 -4,-7 -21,-12 -37,-12 -19,0 -39,-10 -56,-26 -23,-23 -25,-31 -20,-77 10,-81 23,-87 183,-87 h 134 v -320 -320 h 110 110 v 268 c 0,276 7,337 36,359 12,9 53,13 120,13 71,0 105,4 111,12 12,21 7,126 -7,143 -7,9 -28,22 -47,30 -27,11 -33,20 -33,43 0,41 22,98 59,157 40,64 40,109 1,300 -40,190 -89,338 -148,444 l -47,86 1,185 c 0,102 8,271 17,375 9,105 26,357 37,560 31,571 48,765 105,1220 19,149 45,396 59,550 36,397 46,483 57,511 20,53 47,0 127,-246 32,-102 66,-219 73,-260 18,-95 18,-545 0,-640 -7,-36 -48,-173 -91,-305 -140,-426 -163,-579 -163,-1065 0,-364 8,-458 59,-705 90,-438 103,-508 118,-625 54,-431 39,-775 -55,-1208 -69,-322 -92,-559 -139,-1477 -16,-319 -32,-598 -35,-620 -12,-91 -8,-241 9,-272 8,-17 20,-71 26,-120 12,-109 12,-464 0,-598 -21,-228 -23,-284 -11,-313 24,-56 71,-62 279,-36 177,23 416,23 512,1 122,-28 272,-37 705,-43 443,-7 682,3 735,31 30,15 47,52 37,80 -11,26 -84,55 -249,96 -195,49 -281,87 -448,199 -295,197 -415,303 -450,397 -50,135 -52,184 -57,1393 l -5,1125 52,175 c 69,236 132,441 257,840 147,470 171,572 194,835 14,157 13,701 0,1225 -13,477 -14,1367 -1,1555 10,155 18,183 83,278 24,35 54,93 67,130 25,71 36,82 45,45 3,-13 48,-207 100,-433 204,-880 288,-1129 463,-1374 88,-124 654,-786 1070,-1253 l 42,-46 2,-2568 3,-2569 25,-11 c 14,-7 62,-15 106,-19 l 82,-7 5,544 c 4,298 11,1447 18,2553 l 11,2009 58,66 c 32,36 67,84 78,106 25,49 113,123 190,160 38,18 57,34 67,56 35,84 -48,164 -294,287 l -103,52 6,1527 c 3,840 9,1561 14,1603 8,69 13,81 49,125 41,49 74,106 88,154 16,51 78,167 117,218 23,30 37,57 32,60 -144,105 -219,133 -379,139 -138,6 -245,-14 -362,-67 -113,-51 -125,-76 -74,-146 16,-21 66,-109 111,-194 45,-85 90,-165 101,-176 12,-13 25,-47 31,-80 6,-37 11,-511 14,-1254 5,-1130 -2,-1779 -18,-1796 -12,-11 -56,23 -101,81 -23,29 -115,174 -204,322 -205,340 -286,463 -367,562 -115,142 -149,239 -227,650 -27,146 -68,345 -89,441 -95,425 -113,516 -140,720 -42,311 -69,397 -143,467 -121,115 -246,156 -622,208 -218,30 -290,47 -305,75 -5,10 -10,61 -10,112 v 94 l 108,-13 c 211,-27 272,4 272,141 1,64 13,120 34,149 72,97 68,88 64,162 -3,57 -14,93 -57,195 -66,153 -86,221 -111,377 -23,141 -46,208 -99,290 -86,133 -216,210 -430,254 -116,24 -136,36 -145,86 -3,21 -29,182 -56,358 -87,554 -117,693 -173,799 -76,142 -217,225 -317,185 z m 97,-62 c 129,-48 207,-184 263,-459 26,-124 70,-428 70,-480 0,-42 -7,-45 -52,-22 -54,28 -90,36 -180,43 l -86,6 -6,323 c -4,177 -11,333 -16,347 -5,13 -28,34 -52,46 -65,32 -88,57 -88,96 0,89 62,131 147,100 z m 528,-1410 c 115,-26 227,-64 284,-99 57,-34 81,-61 67,-75 -13,-13 -1028,-10 -1050,3 -17,10 -16,13 12,46 37,41 166,104 267,130 85,22 309,19 420,-5 z m 413,-263 c 58,-7 66,-19 25,-36 -44,-18 -741,-14 -1002,6 -118,9 -218,16 -223,16 -4,0 -8,4 -8,10 0,5 26,11 58,13 80,6 1086,-2 1150,-9 z m -566,-104 c 384,-10 612,-24 653,-40 21,-8 25,-16 25,-50 0,-27 -5,-43 -15,-46 -8,-4 -51,1 -95,10 -163,33 -277,15 -446,-70 l -113,-56 -78,28 c -89,31 -120,29 -163,-15 -87,-86 -49,-249 79,-342 l 60,-44 1,-695 c 0,-382 -5,-724 -10,-759 -13,-92 -25,-101 -130,-101 -134,0 -124,-35 -130,439 -3,254 -9,396 -15,396 -87,-2 -246,-42 -381,-95 -178,-71 -418,-208 -463,-266 -51,-64 -82,-227 -106,-554 -8,-113 -18,-227 -21,-255 -7,-56 -27,-95 -49,-95 -36,0 -40,36 -39,355 1,505 41,807 140,1072 119,318 260,616 462,975 l 116,207 116,4 c 63,1 144,4 180,5 36,1 226,-3 422,-8 z m 560,-189 c 93,-19 113,-30 124,-64 4,-12 42,-101 85,-199 100,-225 114,-269 99,-298 -20,-36 -57,-43 -106,-19 -24,11 -48,18 -54,14 -21,-13 -9,-52 25,-85 33,-32 34,-34 17,-53 -28,-32 -68,-47 -122,-47 -48,0 -51,-2 -48,-22 2,-16 18,-30 55,-48 71,-35 97,-59 81,-78 -10,-12 -36,-13 -153,-8 -77,4 -145,3 -152,-1 -18,-13 -33,-60 -33,-104 0,-80 -20,-131 -74,-184 -64,-64 -149,-95 -261,-95 h -75 v 433 433 l -79,75 c -96,91 -122,131 -114,173 22,115 100,127 173,28 l 35,-48 72,62 c 159,139 303,177 505,135 z M 484,10473 c -143,-302 -214,-422 -251,-423 -13,0 -23,2 -23,5 0,25 320,555 335,555 2,0 -25,-62 -61,-137 z m 4002,-753 c 94,-22 194,-64 194,-80 0,-18 -114,-235 -169,-325 -78,-124 -82,-136 -92,-279 -5,-72 -13,-770 -18,-1551 -5,-781 -13,-1436 -18,-1455 -8,-31 -13,-35 -44,-38 -69,-6 -64,-133 -67,1611 l -4,1581 -48,54 c -48,54 -61,77 -134,232 -19,41 -46,92 -58,112 -28,46 -20,64 43,95 119,60 276,77 415,43 z M 1115,9501 c 6,-21 -3,-51 -16,-51 -13,0 -31,40 -25,56 8,20 34,17 41,-5 z m 958,-19 c 17,-15 15,-18 -25,-59 -53,-54 -165,-130 -227,-153 -25,-10 -91,-25 -146,-34 -55,-9 -115,-19 -132,-22 l -33,-5 v 89 c 0,55 4,92 12,100 7,7 32,12 57,12 61,0 155,23 227,55 102,45 226,53 267,17 z m -1105,-6 c 36,-19 106,-93 126,-133 21,-43 22,-103 0,-103 -35,0 -214,202 -214,242 0,13 59,9 88,-6 z m 1302,-9 c 0,-39 -130,-188 -215,-247 -155,-106 -473,-197 -528,-151 -23,19 -22,68 2,81 11,5 39,10 63,10 173,0 352,78 497,215 42,39 87,79 101,88 29,20 80,23 80,4 z M 812,9438 c 8,-7 30,-35 49,-63 18,-27 77,-93 131,-146 109,-107 129,-141 121,-211 -3,-27 -8,-48 -10,-48 -3,0 -47,31 -98,70 -145,109 -295,279 -295,335 0,28 45,69 81,74 3,1 12,-5 21,-11 z m 1668,-16 c 0,-35 -77,-146 -158,-229 -171,-172 -328,-266 -523,-312 -61,-14 -230,-25 -263,-17 -24,6 -26,10 -26,61 0,29 5,57 11,60 6,4 59,11 117,16 215,17 368,93 573,285 146,136 173,154 226,154 34,0 43,-3 43,-18 z m 264,-56 c 36,-13 81,-35 100,-50 50,-38 101,-148 126,-275 17,-87 80,-543 80,-584 0,-9 -53,-11 -231,-7 l -231,5 -28,92 c -41,140 -75,178 -100,111 -6,-18 -16,-93 -21,-167 -5,-74 -11,-137 -14,-140 -11,-10 -246,-14 -257,-3 -16,16 1,57 157,398 79,171 173,380 210,465 37,85 71,160 77,167 16,18 60,15 132,-12 z M 665,9303 c 46,-73 209,-238 324,-326 110,-85 131,-115 131,-184 0,-21 4,-45 10,-53 10,-16 109,-28 245,-29 90,-1 91,-1 127,33 43,40 72,50 226,71 141,20 215,43 365,112 65,30 120,53 123,50 6,-5 -50,-133 -178,-403 -72,-153 -95,-194 -116,-204 -32,-14 -273,-27 -623,-33 l -257,-5 -58,152 c -64,168 -105,256 -127,275 -13,10 -25,9 -62,-4 -56,-18 -236,-35 -394,-35 H 287 l 6,128 c 9,164 20,222 58,300 33,67 70,103 173,164 85,50 104,49 141,-9 z m 1666,-390 c -208,-459 -247,-539 -272,-557 -32,-22 -60,-21 -52,2 15,42 183,403 268,577 87,177 183,326 192,298 2,-6 -59,-150 -136,-320 z M 762,8655 c 22,-9 28,-28 19,-62 -12,-44 -50,-52 -277,-52 -216,-1 -228,2 -236,51 -9,47 12,62 94,70 88,7 376,3 400,-7 z m 18,-205 c 11,-17 3,-59 -15,-78 -17,-18 -124,-29 -330,-33 l -170,-4 -3,68 -3,68 256,-3 c 214,-3 257,-5 265,-18 z m 2261,-90 c 46,-13 80,-47 59,-60 -40,-25 -414,-25 -460,0 -31,17 -27,58 8,66 15,3 32,8 37,10 19,7 320,-6 356,-16 z M 765,8223 c -3,-32 -12,-130 -21,-218 -8,-88 -30,-284 -49,-435 -53,-433 -77,-697 -120,-1345 -14,-209 -30,-424 -35,-479 -6,-54 -10,-102 -10,-106 0,-11 -31,-18 -140,-30 -105,-12 -146,-7 -160,19 -27,52 -40,1012 -20,1501 11,258 45,901 57,1063 l 6,87 h 249 249 z m 1558,43 c 23,-11 22,-20 -6,-51 -19,-23 -35,-28 -97,-35 -96,-12 -929,-12 -1034,-1 -84,9 -116,29 -116,72 0,16 10,19 83,22 149,7 1152,1 1170,-7 z m 762,-68 c 32,-10 41,-18 43,-40 5,-39 -20,-43 -238,-42 -208,1 -243,9 -248,57 -3,21 2,30 20,37 32,14 372,5 423,-12 z m -811,-490 c 12,-705 10,-2552 -3,-2657 -25,-202 -29,-216 -289,-1036 l -197,-620 -3,-1122 -2,-1121 -268,4 c -147,3 -363,7 -481,10 l -214,6 6,312 c 6,299 25,645 67,1241 29,406 50,557 124,880 42,181 58,348 58,585 -1,320 -24,505 -127,1030 -75,380 -85,476 -85,825 1,452 6,489 154,980 122,408 118,388 123,585 2,96 0,248 -4,338 l -8,162 h 571 571 z m 836,333 c 33,-9 59,-81 99,-277 109,-519 158,-655 296,-814 36,-41 92,-113 124,-160 83,-121 243,-401 237,-415 -5,-15 -200,-175 -247,-204 -59,-36 -69,-31 -167,87 -50,59 -122,145 -162,192 -177,210 -322,472 -389,705 -52,182 -133,496 -170,660 -48,215 -48,211 10,225 42,10 334,11 369,1 z m 824,-1760 c 9,-15 -30,-56 -117,-124 -98,-77 -146,-107 -169,-107 -32,0 -19,23 50,90 108,105 218,171 236,141 z m 56,-114 c 0,-23 -52,-88 -124,-154 -64,-61 -103,-82 -125,-68 -21,13 -10,37 42,92 95,102 207,172 207,130 z m 166,-156 c 59,-35 129,-68 174,-81 94,-26 385,-170 439,-217 46,-39 55,-73 18,-73 -47,0 -125,31 -237,96 -63,36 -130,72 -149,80 -43,18 -95,18 -130,-1 -36,-18 -154,-146 -188,-202 -14,-24 -28,-43 -32,-43 -11,0 -63,58 -108,120 -22,30 -63,82 -91,115 -29,33 -52,62 -52,65 0,7 162,147 203,176 18,13 37,23 43,24 6,0 55,-27 110,-59 z m 294,-291 c 68,-34 156,-96 179,-126 24,-30 14,-64 -18,-64 -35,0 -261,188 -261,217 0,15 39,4 100,-27 z m -80,-96 c 77,-63 199,-184 184,-184 -30,0 -270,206 -296,255 -11,19 -11,19 18,1 16,-11 58,-43 94,-72 z m -17,-120 c 115,-95 143,-124 119,-124 -4,0 -44,29 -87,64 -87,70 -185,166 -170,166 6,0 67,-48 138,-106 z m -3845,30 c 39,-8 23,-37 -28,-51 -48,-12 -227,-17 -254,-7 -19,7 -21,39 -3,51 26,17 214,22 285,7 z m 3690,-35 c 65,-43 212,-175 212,-190 0,-14 -38,-11 -70,6 -40,21 -116,88 -172,152 -75,84 -64,96 30,32 z M 464,5401 c 55,-9 68,-24 54,-60 -24,-64 -70,-78 -213,-66 -100,8 -118,20 -104,67 5,17 13,36 18,41 24,24 151,33 245,18 z m 3872,-176 c 36,-55 38,-184 38,-2465 0,-2557 0,-2568 -68,-2558 -20,3 -21,9 -27,253 -10,398 -9,4444 1,4610 11,190 20,215 56,160 z M 533,5122 c 15,-51 38,-104 55,-125 44,-55 94,-206 138,-415 31,-150 30,-173 -3,-212 -24,-29 -28,-31 -39,-15 -7,9 -22,48 -33,85 -35,115 -51,121 -235,91 -172,-28 -196,-28 -227,5 -23,24 -24,33 -28,176 -3,134 11,398 26,470 l 6,28 h 156 157 z m -15,-668 c 28,-20 28,-51 -2,-137 -24,-67 -68,-137 -87,-137 -27,0 -65,109 -84,243 l -6,47 h 78 c 55,0 85,-5 101,-16 z m -260,-36 c 5,-7 19,-42 32,-78 31,-92 95,-222 119,-244 20,-19 21,-18 55,19 38,41 96,147 116,210 7,22 16,44 20,48 9,10 60,-103 60,-132 0,-42 -29,-91 -74,-122 -24,-17 -42,-37 -40,-44 9,-21 53,-35 112,-35 59,0 102,-19 102,-44 0,-21 -46,-28 -124,-21 -84,8 -122,-4 -137,-42 -5,-15 -15,-134 -20,-265 -10,-239 -23,-323 -49,-323 -24,0 -28,41 -29,295 -1,135 -6,262 -11,282 -12,43 -16,44 -177,54 -124,7 -164,22 -129,49 19,14 47,19 166,30 59,5 103,19 90,27 -3,2 -27,14 -54,28 -69,35 -96,87 -96,187 0,102 34,163 68,121 z m 966,-3340 c 3,-13 12,-81 21,-153 39,-300 105,-403 351,-551 185,-111 420,-203 635,-249 221,-46 210,-63 -48,-72 -229,-7 -442,9 -550,41 -169,51 -340,56 -543,15 C 821,56 811,63 835,293 c 8,78 17,292 21,475 l 7,332 h 178 c 177,0 179,0 183,-22 z m 180,0 c 33,-51 59,-382 36,-453 l -13,-39 -22,27 c -52,59 -95,228 -95,367 0,80 2,90 22,104 31,22 55,20 72,-6 z m 350,12 c 22,-8 26,-16 26,-47 1,-97 62,-281 120,-362 45,-62 242,-211 441,-334 198,-122 324,-175 494,-208 106,-21 121,-28 112,-53 -24,-61 -277,-37 -562,54 -68,22 -151,44 -183,49 -143,23 -451,151 -613,256 -78,50 -72,27 -89,350 -6,110 -12,224 -13,253 l -4,52 h 123 c 67,0 134,-4 148,-10 z"
       id="path1" />
    <path
       d="m 1997,10650 c -69,-12 -178,-46 -204,-65 -12,-8 -23,-25 -25,-38 -2,-16 -19,-30 -60,-49 -49,-23 -58,-32 -58,-54 0,-29 1,-29 92,-3 46,12 48,12 115,-23 104,-55 130,-59 273,-45 69,7 131,16 138,20 53,34 -68,133 -186,152 -45,7 -79,32 -64,47 5,5 41,4 85,-2 122,-17 152,4 67,48 -46,23 -88,26 -173,12 z m 126,-178 c 27,-12 46,-26 43,-30 -3,-5 -33,-12 -65,-16 -64,-7 -129,5 -169,30 -20,13 -21,18 -10,31 18,22 138,13 201,-15 z"
       id="path2" />
    <path
       id="path3"
       d="m 6496.377,11789.756 c 0.8091,-9.368 1.7361,-17.986 2.7246,-26.177 1.9053,0.907 3.8207,1.834 5.7129,2.754 0.9611,0.467 2.3213,0.967 3.2959,1.436 -4.2843,7.07 -7.7857,14.684 -11.7334,21.987 z" />
  </g>
</svg>
